<?xml version="1.0" encoding="UTF-8"?>
<svg xmlns="http://www.w3.org/2000/svg" width="51.897mm" height="74.021mm" viewBox="205.486191 82.219566 51.896988 74.020836">
    <path transform="translate(199.167831,60.677273)" style="stroke:#000000;stroke-width:0.05mm;fill:none" d="M14.4375,95.020653C15.106995,95.162704,16.215759,95.283211,17.087097,95.308632L18.061462,95.337029L18.061462,94.721649L18.061462,94.106262L16.830688,93.989944C15.272827,93.842712,14.738708,93.756111,14.787354,93.631912C14.846924,93.47966,13.892151,93.62191,14.106201,94.235016C14.140381,94.474518,14.287537,94.988853,14.4375,95.020653z"/>
    <path transform="translate(199.167831,60.677273)" style="stroke:#000000;stroke-width:0.05mm;fill:none" d="M15.743835,93.424522C16.027893,93.473419,16.266602,93.422523,16.266602,93.465225C16.266541,93.507523,17.538513,93.542122,19.093079,93.542122C20.756104,93.542122,21.895996,93.503822,21.862183,93.449219C21.830566,93.398117,21.705261,93.382317,21.583679,93.414116C21.432251,93.453712,21.385742,93.434517,21.435974,93.353218C21.476257,93.287918,21.575867,93.234497,21.657104,93.234497C21.857117,93.234497,21.843018,93.001778,21.618408,92.596588C21.323242,92.064079,21.280396,91.903107,21.451172,91.968636C21.532898,92.000038,21.599792,92.057838,21.599792,92.097214C21.599792,92.136612,21.761353,92.345123,21.958801,92.560677C22.15625,92.77623,22.317749,93.039093,22.317749,93.144829C22.317749,93.311981,22.400269,93.337059,22.950256,93.337059C23.637634,93.337059,23.71521,93.247658,23.074768,93.193527C22.855835,93.175026,22.619019,93.153625,22.548523,93.145927C22.3349,93.122627,22.4104,92.887466,22.699158,92.676781C22.886353,92.540184,22.984253,92.516121,23.012207,92.599884C23.061523,92.747887,23.40918,92.761703,23.497253,92.619186C23.532166,92.56279,23.715332,92.516624,23.904358,92.516624C24.240234,92.516624,25.086975,92.060646,25.086975,91.879807C25.086975,91.690727,24.74469,91.678917,24.202942,91.849304C23.890808,91.947502,23.610901,92.091644,23.580994,92.169655C23.469116,92.461174,23.259521,92.292274,22.94812,91.659714C22.565796,90.883163,22.296021,90.595184,21.63385,90.256935C21.173096,90.021576,21.033875,90.004059,19.651123,90.007393C18.833191,90.009392,17.863953,90.044594,17.497253,90.085693C16.625122,90.183395,15.933777,90.716446,15.849792,90.923592C15.597046,91.472931,15.27063,93.343102,15.743774,93.424522L15.743835,93.424522z"/>
    <path transform="translate(199.167831,60.677273)" style="stroke:#000000;stroke-width:0.05mm;fill:none" d="M19.372559,95.23455C19.360352,95.178154,19.17572,95.10891,18.96228,95.080704C18.701843,95.046303,18.618347,95.001007,18.708313,94.942841C18.782043,94.895241,18.951965,94.883743,19.085938,94.917442C19.368347,94.988342,19.506531,94.720222,19.4021,94.304115C19.346375,94.082176,19.284058,94.055107,18.828735,94.055107C18.339539,94.055107,18.317932,94.067108,18.31897,94.337158C18.31958,94.492287,18.34906,94.794556,18.38446,95.008865L18.448853,95.398514L18.921814,95.367813C19.181946,95.350914,19.384766,95.291016,19.372498,95.234573L19.372559,95.23455z"/>
    <path transform="translate(199.167831,60.677273)" style="stroke:#000000;stroke-width:0.05mm;fill:none" d="M21.773438,95.031967C22.517578,95.001366,23.186829,94.957466,23.26062,94.934464C23.334412,94.911461,23.528381,94.863167,23.69165,94.827156C24.08844,94.739555,23.905884,94.556686,23.319885,94.454689C22.943909,94.38929,22.979797,94.380989,23.573364,94.396286C24.006348,94.407387,24.28125,94.370888,24.308777,94.298683C24.332947,94.235184,24.483398,94.159134,24.643005,94.129585C24.802612,94.099983,25.345215,94.004128,25.848816,93.916458C26.844055,93.743195,28.0802,93.347992,28.005432,93.22699C27.979736,93.185493,27.716492,93.210388,27.420349,93.282288C25.065674,93.85437,24.373718,93.945778,21.702454,94.037598L19.702454,94.1063L19.726563,94.504211C19.755981,94.990234,19.911377,95.196411,20.201355,95.13443C20.321838,95.108727,21.029236,95.062531,21.773376,95.031929L21.773438,95.031967z"/>
    <path transform="translate(199.167831,60.677273)" style="stroke:#000000;stroke-width:0.05mm;fill:none" d="M24.854187,94.711037C24.820068,94.676933,24.731628,94.67334,24.657593,94.703033C24.575806,94.735733,24.600098,94.760033,24.719604,94.76503C24.827698,94.769028,24.888306,94.745232,24.854187,94.711128L24.854187,94.711037z"/>
    <path transform="translate(199.167831,60.677273)" style="stroke:#000000;stroke-width:0.05mm;fill:none" d="M24.864868,93.144684C24.977783,93.073082,24.976624,93.048386,24.857849,93.00296C24.664917,92.928963,24.163452,93.030663,24.163452,93.143929C24.163452,93.259018,24.683105,93.259575,24.86438,93.144676L24.864868,93.144684z"/>
    <path transform="translate(199.167831,60.677273)" style="stroke:#000000;stroke-width:0.05mm;fill:none" d="M22.984497,93.029411C23.019409,92.973015,22.999023,92.926849,22.93927,92.926849C22.879578,92.926849,22.830688,92.972946,22.830688,93.029411C22.830688,93.085808,22.851074,93.131973,22.875916,93.131973C22.900818,93.131973,22.949646,93.08577,22.984497,93.029411z"/>
    <path transform="translate(199.167831,60.677273)" style="stroke:#000000;stroke-width:0.05mm;fill:none" d="M24.061401,92.932915C24.061401,92.879814,24.015198,92.807877,23.958801,92.773018C23.902405,92.738121,23.856262,92.782021,23.856262,92.869514C23.856262,92.957512,23.902344,93.029411,23.958801,93.029411C24.015198,93.029411,24.061401,92.986008,24.061401,92.932915z"/>
    <path transform="translate(199.167831,60.677273)" style="stroke:#000000;stroke-width:0.05mm;fill:none" d="M24.492188,92.803787C24.396484,92.708084,24.341736,92.708084,24.246033,92.803787C24.15033,92.89949,24.177612,92.926865,24.369141,92.926865C24.560608,92.926865,24.587952,92.899467,24.492249,92.803787L24.492188,92.803787z"/>
    <path transform="translate(199.167831,60.677273)" style="stroke:#000000;stroke-width:0.05mm;fill:none" d="M25.19635,92.820686C25.305481,92.762283,25.394714,92.623833,25.394714,92.512993C25.394714,92.271317,25.409729,92.27282,24.943726,92.467491C24.630798,92.598244,24.59137,92.647499,24.700439,92.771278C24.858276,92.950409,24.938904,92.958435,25.19635,92.820679L25.19635,92.820686z"/>
    <path transform="translate(199.167831,60.677273)" style="stroke:#000000;stroke-width:0.05mm;fill:none" d="M24.010254,91.183075C24.045166,91.126572,23.949158,91.032967,23.796936,90.975082C23.476746,90.85334,23.415955,90.88298,23.505859,91.117302C23.576965,91.302513,23.909607,91.345894,24.010254,91.183105L24.010254,91.183075z"/>
    <path transform="translate(199.167831,60.677273)" style="stroke:#000000;stroke-width:0.05mm;fill:none" d="M36.40033,90.570145C36.966675,90.210983,37.006836,90.108978,36.548645,90.193405L36.215332,90.254807L36.556641,89.961334C37.029724,89.554527,37.849426,89.322098,39.0177,89.263504C40.271606,89.200607,40.190491,89.201607,40.356384,89.247101C40.55365,89.301201,40.602478,89.107071,40.445496,88.892433C40.326599,88.729866,40.239807,88.723633,39.546692,88.827835C38.817322,88.937492,37.927124,89.134521,36.493591,89.503578C35.756836,89.693245,35.501709,89.999786,35.613892,90.560577C35.6922,90.952156,35.795959,90.953407,36.400391,90.57058L36.40033,90.570145z"/>
    <path transform="translate(199.167831,60.677273)" style="stroke:#000000;stroke-width:0.05mm;fill:none" d="M27.13678,89.827904C27.138794,89.583023,26.923401,89.496826,25.804993,89.29528C25.269104,89.198677,24.491089,89.05323,24.07605,88.971992C23.661011,88.890793,23.171082,88.824295,22.987305,88.824295C22.617554,88.824295,22.112671,89.161118,22.112671,89.407799C22.112671,89.542076,22.217896,89.555122,22.804993,89.493599C23.185791,89.453697,23.644043,89.352325,23.823303,89.268295C24.12085,89.128899,24.219482,89.134766,24.951538,89.335396C25.3927,89.456337,25.861206,89.656197,25.992615,89.779518C26.292847,90.061325,26.952637,90.267181,27.059814,90.112488C27.101196,90.052689,27.135925,89.924606,27.136719,89.827881L27.13678,89.827904z"/>
    <path transform="translate(199.167831,60.677273)" style="stroke:#000000;stroke-width:0.05mm;fill:none" d="M24.546448,89.685402C24.512329,89.651299,24.423889,89.647705,24.349854,89.677399C24.268066,89.710098,24.292358,89.734398,24.411865,89.739395C24.519958,89.743393,24.580566,89.719597,24.546509,89.685493L24.546448,89.685402z"/>
    <path transform="translate(199.167831,60.677273)" style="stroke:#000000;stroke-width:0.05mm;fill:none" d="M37.093811,88.820679C37.249023,88.737579,37.292175,88.603767,37.292175,88.205299C37.292175,87.925232,37.339478,87.696091,37.397278,87.696091C37.516846,87.696091,37.693542,88.103783,37.668091,88.320923C37.649963,88.474701,37.71228,88.516602,37.958862,88.516602C38.081055,88.516602,38.112732,88.367989,38.112732,87.794502L38.112732,87.072411L37.266602,87.102211L36.420471,87.132011L36.440186,87.439713C36.534302,88.911133,36.613281,89.077942,37.093933,88.820709L37.093811,88.820679z"/>
    <path transform="translate(199.167831,60.677273)" style="stroke:#000000;stroke-width:0.05mm;fill:none" d="M37.292175,87.497009C37.292175,87.443909,37.338257,87.371979,37.394775,87.337112C37.451172,87.302216,37.497314,87.346115,37.497314,87.433609C37.497314,87.521606,37.451111,87.593506,37.394775,87.593506C37.338379,87.593506,37.292175,87.550102,37.292175,87.497009z"/>
    <path transform="translate(199.167831,60.677273)" style="stroke:#000000;stroke-width:0.05mm;fill:none" d="M26.522949,88.516602C26.522949,88.403778,26.479553,88.31147,26.426453,88.31147C26.288757,88.31147,26.191772,88.498154,26.266541,88.619164C26.373718,88.792603,26.522949,88.732925,26.522949,88.516602z"/>
    <path transform="translate(199.167831,60.677273)" style="stroke:#000000;stroke-width:0.05mm;fill:none" d="M25.429016,87.670448L25.489624,86.978142L25.134521,86.978142L24.779419,86.978142L24.779419,87.533852C24.779419,87.839493,24.752747,88.159164,24.720093,88.244209C24.677368,88.35553,24.742004,88.409119,24.950867,88.435486C25.110413,88.455589,25.269653,88.447487,25.304749,88.417389C25.339844,88.387291,25.395752,88.05117,25.429077,87.67041L25.429016,87.670448z"/>
    <path transform="translate(199.167831,60.677273)" style="stroke:#000000;stroke-width:0.05mm;fill:none" d="M26.062683,88.012428C26.060669,87.157547,25.884827,87.19735,25.761108,88.080727C25.708984,88.45266,25.726807,88.516624,25.881958,88.516624C26.031616,88.516624,26.06366,88.427322,26.062683,88.012451L26.062683,88.012428z"/>
    <path transform="translate(199.167831,60.677273)" style="stroke:#000000;stroke-width:0.05mm;fill:none" d="M24.363098,88.131981C24.358093,87.97686,24.400818,87.666611,24.458374,87.442558C24.515869,87.218498,24.546265,87.018456,24.525879,86.998032C24.505493,86.977631,24.300293,86.935631,24.070007,86.904732C23.683472,86.852829,23.650513,86.867332,23.64093,87.092842C23.634949,87.227196,23.611816,87.552902,23.588928,87.816643C23.544739,88.325066,23.590942,88.374023,24.140076,88.402145C24.330139,88.412148,24.370789,88.362648,24.363159,88.131989L24.363098,88.131981z"/>
    <path transform="translate(199.167831,60.677273)" style="stroke:#000000;stroke-width:0.05mm;fill:none" d="M38.956299,88.25425C38.987793,88.222748,38.991211,88.111526,38.963318,88.007027C38.917603,87.832085,38.898499,87.829933,38.723328,87.979927C38.618652,88.069527,38.556458,88.180794,38.585083,88.22715C38.64447,88.32325,38.8703,88.339699,38.955811,88.25425L38.956299,88.25425z"/>
    <path transform="translate(199.167831,60.677273)" style="stroke:#000000;stroke-width:0.05mm;fill:none" d="M38.933289,87.448059C38.933289,87.368057,38.961304,87.229599,38.995605,87.140366C39.042603,87.017998,38.992615,86.978134,38.790466,86.978134C38.561768,86.978134,38.523071,87.022636,38.523071,87.285828C38.523071,87.525146,38.568665,87.593521,38.72821,87.593521C38.841003,87.593521,38.93335,87.528122,38.93335,87.448059L38.933289,87.448059z"/>
    <path transform="translate(199.167831,60.677273)" style="stroke:#000000;stroke-width:0.05mm;fill:none" d="M26.266602,87.183258C26.438477,87.10936,26.417725,87.093956,26.138428,87.08786C25.955078,87.083862,25.805115,87.126762,25.805115,87.183258C25.805115,87.305016,25.983276,87.305016,26.266663,87.183258L26.266602,87.183258z"/>
    <path transform="translate(199.167831,60.677273)" style="stroke:#000000;stroke-width:0.05mm;fill:none" d="M38.434143,86.498459C38.738037,86.43766,38.747131,86.420357,38.683777,86.024231C38.647583,85.798103,38.599487,85.583092,38.576843,85.546432C38.52887,85.468834,36.824585,85.665474,36.732239,85.759315C36.698059,85.794113,36.701416,86.018997,36.740234,86.259102L36.810059,86.695663L37.4646,86.628563C37.824585,86.59166,38.261108,86.533165,38.43457,86.498421L38.434143,86.498459z"/>
    <path transform="translate(199.167831,60.677273)" style="stroke:#000000;stroke-width:0.05mm;fill:none" d="M26.052979,86.029488C26.104675,85.761589,26.116272,85.51165,26.078796,85.474075C26.041199,85.436478,25.64801,85.384773,25.205017,85.359123C24.426636,85.314026,24.397339,85.320625,24.334473,85.555565C24.298645,85.689255,24.268799,85.945572,24.267944,86.125153C24.26593,86.498566,24.411926,86.550735,25.394775,86.52903L25.958862,86.516533L26.052979,86.029488z"/>
    <path transform="translate(199.167831,60.677273)" style="stroke:#000000;stroke-width:0.05mm;fill:none" d="M33.907593,83.849915C33.907593,83.509216,33.925598,83.490944,34.260498,83.490944C34.45459,83.490944,34.638184,83.450844,34.668457,83.401848C34.69873,83.352844,34.966858,83.281433,35.264282,83.243103C35.561707,83.204803,35.948364,83.122604,36.123474,83.060516C36.354675,82.978516,36.530273,82.978416,36.764526,83.060074C36.957092,83.127174,37.087097,83.133377,37.087097,83.075279C37.087097,83.021774,37.003967,82.978081,36.902466,82.978081C36.800903,82.978081,36.666687,82.926979,36.604187,82.864441C36.523682,82.783936,36.390747,82.781441,36.147766,82.856438C35.959229,82.914238,35.458862,82.991096,35.035767,83.027191C34.612671,83.063286,34.093445,83.119186,33.881897,83.151367C33.498108,83.20977,33.497253,83.210968,33.497253,83.709641C33.497253,84.140968,33.52533,84.209351,33.702393,84.209351C33.868469,84.209351,33.907532,84.140945,33.907532,83.850372L33.907593,83.849915z"/>
    <path transform="translate(199.167831,60.677273)" style="stroke:#000000;stroke-width:0.05mm;fill:none" d="M36.57428,83.893013C36.376831,83.843613,36.078735,83.776726,35.911804,83.744377C35.744873,83.711975,35.55127,83.638214,35.481567,83.580353C35.329285,83.453972,34.881958,83.500755,34.881958,83.642952C34.881958,83.698456,35.055542,83.771996,35.2677,83.80648C35.479858,83.840981,35.677673,83.893379,35.707275,83.923019C35.736877,83.952621,36.024841,83.978218,36.347168,83.97982C36.884644,83.982819,36.903503,83.975822,36.574219,83.892921L36.57428,83.893013z"/>
    <path transform="translate(199.167831,60.677273)" style="stroke:#000000;stroke-width:0.05mm;fill:none" d="M25.087097,83.724968C25.087097,83.652664,24.997009,83.593506,24.88678,83.593506C24.776611,83.593506,24.564575,83.53801,24.415527,83.470055C24.176941,83.361359,24.167053,83.338715,24.332703,83.280594C24.444092,83.241493,24.207397,83.176819,23.752686,83.122009L22.984497,83.029404L24.189636,83.000504C25.360718,82.972404,25.739319,82.857582,25.061462,82.736076C24.878113,82.703171,24.296509,82.622208,23.768921,82.556053C22.649719,82.415718,22.629517,82.428162,22.627136,83.260178L22.625122,83.798637L23.024414,83.798637C23.282715,83.798637,23.444275,83.744934,23.482056,83.646515C23.515869,83.558517,23.608154,83.520386,23.701172,83.556114C23.842651,83.610413,23.840088,83.634117,23.679382,83.754189C23.522766,83.871239,23.609558,83.888153,24.291748,83.87352C24.860901,83.86132,25.086609,83.819115,25.086609,83.724998L25.087097,83.724968z"/>
    <path transform="translate(199.167831,60.677273)" style="stroke:#000000;stroke-width:0.05mm;fill:none" d="M36.64032,83.306938C36.535583,83.284737,36.405212,83.310936,36.350464,83.366035C36.286255,83.430237,36.353455,83.444534,36.540833,83.406334C36.755493,83.362534,36.781311,83.336838,36.640259,83.306938L36.64032,83.306938z"/>
    <path transform="translate(199.167831,60.677273)" style="stroke:#000000;stroke-width:0.05mm;fill:none" d="M48.9953,83.073029C49.672058,82.591133,49.959961,81.829018,50.11615,80.106323C50.267883,78.432434,50.283752,78.362732,50.513184,78.362732C50.618408,78.362732,50.771545,78.466583,50.853455,78.593506C51.173096,79.088852,51.454468,81.662971,51.247437,82.197472C51.070435,82.654343,51.192566,82.632126,51.55481,82.141472L51.883728,81.696045L51.819641,82.038002C51.736145,82.483376,51.389221,82.963516,51.0495,83.103928C50.823303,83.197426,50.809937,83.222679,50.967102,83.259727C51.477661,83.380074,52.27533,82.677956,52.479919,81.928154C52.648682,81.309738,52.534119,79.299812,52.284729,78.503349C51.666687,76.529617,50.522766,75.59436,48.625671,75.511734C46.426514,75.415939,44.744019,76.282135,44.167358,77.806938C43.966431,78.338135,43.946167,78.528938,44.005066,79.333908C44.042053,79.839859,44.091553,80.272987,44.114929,80.296425C44.138306,80.319824,44.298218,80.280724,44.470215,80.209526C44.642212,80.138329,44.943726,80.106117,45.14032,80.138031C45.46283,80.190331,45.487915,80.177628,45.397217,80.008118C45.341919,79.904762,45.157654,79.771751,44.987854,79.71254C44.593506,79.575081,44.668335,79.285797,45.098206,79.285797C45.361877,79.285797,45.394897,79.250198,45.394897,78.966789C45.394897,78.678047,45.950806,77.644768,46.10614,77.644768C46.139832,77.644768,46.315308,77.89193,46.495972,78.193993C46.676636,78.496063,47.252808,79.192711,47.776367,79.742104C48.299927,80.291496,48.767883,80.810753,48.816345,80.896034C48.934326,81.103706,48.506714,82.594307,48.250122,82.869713C48.142029,82.985733,47.986145,83.080666,47.903748,83.080666C47.742432,83.080666,47.706238,83.203773,47.830872,83.328835C47.956238,83.454674,48.684021,83.29483,48.995483,83.073006L48.9953,83.073029z"/>
    <path transform="translate(199.167831,60.677273)" style="stroke:#000000;stroke-width:0.05mm;fill:none" d="M33.990967,82.689667C34.093201,82.587418,34.231689,82.522034,34.298645,82.544365C34.545654,82.626663,34.411377,82.35421,34.157349,82.257629C33.777893,82.11335,33.705933,82.130539,33.610107,82.388374C33.44281,82.838425,33.665833,83.014809,33.990967,82.689659L33.990967,82.689667z"/>
    <path transform="translate(199.167831,60.677273)" style="stroke:#000000;stroke-width:0.05mm;fill:none" d="M25.907654,82.167686C25.907654,82.116783,25.619202,82.044296,25.266602,82.006531C24.202393,81.892555,23.345886,81.731544,23.285706,81.634171C23.206421,81.505791,22.857117,81.519135,22.773926,81.65377C22.636902,81.875481,22.961121,82.005173,23.938049,82.119423C25.207947,82.267944,25.907654,82.285103,25.907654,82.167725L25.907654,82.167686z"/>
    <path transform="translate(199.167831,60.677273)" style="stroke:#000000;stroke-width:0.05mm;fill:none" d="M45.116089,81.917084C45.297607,81.841187,45.509888,81.702217,45.587891,81.608208C45.713928,81.456268,45.702515,81.440254,45.485657,81.464119C45.296997,81.484917,45.233765,81.435417,45.206726,81.24614C45.1875,81.111488,45.228699,80.966148,45.298218,80.923157C45.556335,80.763641,45.31134,80.516586,44.89502,80.516586C44.51178,80.516586,44.474915,80.545685,44.167175,81.090912C43.858582,81.637749,43.851501,81.674568,44.019409,81.860138C44.226257,82.088669,44.652588,82.110809,45.116028,81.917137L45.116089,81.917084z"/>
    <path transform="translate(199.167831,60.677273)" style="stroke:#000000;stroke-width:0.05mm;fill:none" d="M33.805115,81.745789C33.941895,81.655983,33.941895,81.633568,33.805115,81.5438C33.496155,81.340996,33.157593,81.44165,33.259033,81.7061C33.322937,81.872635,33.583069,81.891541,33.805115,81.745796L33.805115,81.745789z"/>
    <path transform="translate(199.167831,60.677273)" style="stroke:#000000;stroke-width:0.05mm;fill:none" d="M24.536926,81.26545C24.511414,81.239944,24.40564,81.20665,24.301758,81.191444C24.197876,81.176247,24.12439,81.133545,24.138489,81.09655C24.152588,81.059647,24.164063,80.977867,24.164063,80.914879C24.164063,80.848076,24.270813,80.820778,24.420471,80.84938C24.561462,80.876381,24.67688,80.858376,24.67688,80.810081C24.67688,80.720879,24.527466,80.68354,24.292236,80.714081C24.221741,80.723076,24.164063,80.659477,24.164063,80.572388C24.164063,80.485291,24.106384,80.425583,24.035828,80.43969C23.956055,80.455688,23.907654,80.349091,23.907654,80.157639C23.907654,79.876106,23.874939,79.847237,23.52301,79.818108L23.138428,79.786308L23.137451,80.228394C23.136658,80.471542,23.109253,80.770378,23.076477,80.892464C23.034302,81.049828,23.077332,81.146767,23.224304,81.225433C23.520691,81.384033,23.737549,81.263939,23.773987,80.920937C23.799072,80.684746,23.83667,80.644966,23.959351,80.724548C24.09613,80.813248,24.09613,80.835808,23.959351,80.927643C23.828552,81.015442,23.843018,81.060013,24.055542,81.224709C24.193054,81.331268,24.368164,81.394455,24.44458,81.365128C24.520996,81.335823,24.562683,81.290924,24.53717,81.265526L24.536926,81.26545z"/>
    <path transform="translate(199.167831,60.677273)" style="stroke:#000000;stroke-width:0.05mm;fill:none" d="M40.164124,80.721718C40.164124,80.665321,40.115234,80.619148,40.055481,80.619148C39.995789,80.619148,39.975403,80.665352,40.010254,80.721718C40.045166,80.778122,40.093933,80.82428,40.118896,80.82428C40.143799,80.82428,40.164124,80.778076,40.164124,80.721718z"/>
    <path transform="translate(199.167831,60.677273)" style="stroke:#000000;stroke-width:0.05mm;fill:none" d="M40.676941,79.912178C40.676941,79.805389,40.603943,79.69001,40.514709,79.655769C40.277649,79.564774,40.164124,79.579269,40.164124,79.700569C40.164124,79.759468,40.244934,79.794067,40.343628,79.777473C40.465881,79.756973,40.513489,79.804573,40.492981,79.926819C40.476379,80.02552,40.510986,80.1063,40.569885,80.1063C40.628784,80.1063,40.676941,80.018906,40.676941,79.912155L40.676941,79.912178z"/>
    <path transform="translate(199.167831,60.677273)" style="stroke:#000000;stroke-width:0.05mm;fill:none" d="M24.369263,78.972427C24.369263,78.679382,24.347656,78.66153,24.03595,78.697372C23.834717,78.720474,23.701538,78.793869,23.69989,78.882553C23.698914,78.963348,23.661072,79.087105,23.616882,79.157623C23.557556,79.252319,23.645508,79.28582,23.952942,79.28582C24.348816,79.28582,24.369263,79.270424,24.369263,78.972435L24.369263,78.972427z"/>
    <path transform="translate(199.167831,60.677273)" style="stroke:#000000;stroke-width:0.05mm;fill:none" d="M23.548767,77.67836C23.895752,77.589157,24.941772,77.510208,26.266724,77.473167C27.451355,77.440071,28.505371,77.369026,28.60907,77.315331C28.745239,77.244827,28.780273,77.148857,28.735291,76.969696C28.690186,76.789986,28.715393,76.721718,28.826904,76.721718C28.911499,76.721718,29.011841,76.84864,29.049805,77.003769C29.138489,77.365982,29.210999,77.407982,29.657715,77.355827C29.921814,77.325027,30.05719,77.243866,30.137085,77.068573C30.282959,76.74836,30.420593,76.757248,30.420593,77.086868C30.420593,77.327614,30.452576,77.346817,30.805237,77.317642C31.156372,77.288544,31.192627,77.256844,31.221985,76.952484C31.267761,76.477814,31.527954,76.516342,31.568298,77.003784L31.600098,77.38839L34.882141,77.370995C38.629272,77.351089,39.651367,77.28759,39.651367,77.074562C39.651367,76.962128,39.432861,76.932861,38.614929,76.93576C37.632446,76.938759,37.386841,76.900764,37.522949,76.764702C37.555725,76.731903,38.079163,76.650085,38.686157,76.582817C39.293152,76.515518,39.805786,76.412453,39.825378,76.353722C39.849854,76.280327,37.591614,76.250076,32.602356,76.257027C26.311829,76.266022,25.20697,76.290024,24.318115,76.439407C22.392761,76.762878,22.476196,76.730972,22.440369,77.157333C22.399963,77.639046,22.579468,77.994667,22.81311,77.895905C22.907532,77.856003,23.238586,77.758125,23.548828,77.678398L23.548767,77.67836z"/>
    <path transform="translate(199.167831,60.677273)" style="stroke:#000000;stroke-width:0.05mm;fill:none" d="M10.805176,76.502441L11.651306,76.280388L11.651306,75.372849C11.651306,74.524208,11.540405,74.211937,11.398193,74.660072C11.364197,74.767189,11.21582,74.975418,11.06842,75.12281C10.75946,75.431755,9.478027,76.159973,9.060608,76.263794C8.717285,76.34919,8.600647,76.507835,8.792053,76.629051C9.041443,76.787003,9.934937,76.730812,10.805176,76.502441L10.805176,76.502441z"/>
    <path transform="translate(199.167831,60.677273)" style="stroke:#000000;stroke-width:0.05mm;fill:none" d="M7.169983,76.245789C7.206055,76.209694,7.158569,76.049553,7.06427,75.889969C6.846375,75.521088,6.952454,75.405212,7.25238,75.684593C7.655029,76.059731,7.802673,76.039673,9.010315,75.445724C9.647888,75.132133,10.260681,74.8741,10.372009,74.872299C11.19519,74.859001,11.08728,73.585175,10.245117,73.373795C10.038818,73.321991,9.747192,73.417595,9.042847,73.767929C8.531372,74.022308,7.854492,74.285034,7.538635,74.351768C6.781128,74.511818,6.392639,74.896843,6.392639,75.487633C6.392639,75.74527,6.463013,75.983253,6.576355,76.108444C6.757385,76.308464,7.041626,76.374222,7.170044,76.245789L7.169983,76.245789z"/>
    <path transform="translate(199.167831,60.677273)" style="stroke:#000000;stroke-width:0.05mm;fill:none" d="M12.832092,76.05027C13.132202,75.963074,13.43396,75.823921,13.502625,75.74115C13.66156,75.549683,13.558838,74.728043,13.332825,74.383179C13.183044,74.154617,13.125488,74.139664,12.641174,74.203354C12.350586,74.241554,12.072937,74.312233,12.024109,74.360382C11.936035,74.447281,12.137756,76.2089,12.23584,76.2089C12.263611,76.2089,12.531921,76.137497,12.832031,76.05027L12.832092,76.05027z"/>
    <path transform="translate(199.167831,60.677273)" style="stroke:#000000;stroke-width:0.05mm;fill:none" d="M24.013123,75.967575C24.128845,75.888176,24.522644,75.822144,24.933411,75.813286C25.716187,75.796387,26.947083,75.692421,27.047791,75.634697C27.08252,75.614792,27.043762,75.193558,26.962769,74.698608C26.832642,73.908119,26.824341,72.21595,26.948059,71.696129C26.983643,71.546577,26.933472,71.537788,26.292358,71.58136C26.193665,71.588356,26.112854,71.670654,26.112854,71.764969C26.112854,71.971687,25.822876,72.311508,25.646484,72.311508C25.431213,72.311508,24.506653,71.412575,24.322266,71.024025C24.128662,70.616066,24.17334,70.333405,24.416687,70.426781C24.660583,70.520378,24.598755,70.172852,24.277527,69.644836C23.834229,68.916039,23.880005,68.816307,23.35968,71.644836C23.14856,72.79258,22.955872,75.647377,23.06958,75.943581C23.147583,76.146919,23.730103,76.161736,24.013123,75.967575L24.013123,75.967575z"/>
    <path transform="translate(199.167831,60.677273)" style="stroke:#000000;stroke-width:0.05mm;fill:none" d="M32.856445,75.482681C32.983398,75.430885,33.19104,75.348022,33.317993,75.29863C33.444946,75.249229,33.677856,75.156944,33.835632,75.093498C33.993408,75.030098,34.224182,74.9767,34.34845,74.974907C34.472717,74.972908,34.664001,74.903908,34.773499,74.82106C34.882996,74.738258,35.067627,74.675827,35.183777,74.682365C35.356812,74.692368,35.362549,74.702766,35.215454,74.741165C35.112549,74.768066,35.037109,74.883354,35.038696,75.011314C35.04071,75.203873,35.098267,75.172554,35.454712,74.783524C35.820435,74.384384,35.860229,74.363388,35.800598,74.601006C35.756714,74.776077,35.785217,74.921471,35.882507,75.018791C36.013184,75.149445,36.026855,75.12104,35.992126,74.791054C35.644836,71.490814,35.621338,71.11142,35.758606,71.026573C35.834106,70.979874,35.934387,71.010872,36.000305,71.101173C36.083191,71.214729,36.104065,70.74263,36.079224,69.314949C36.045227,67.356705,36.15094,66.232689,36.417419,65.718971C36.568542,65.427681,36.530396,65.33712,36.256592,65.33712C36.072083,65.33712,36.055481,65.370216,35.859131,66.130249C35.705872,66.72348,35.48175,66.824921,34.887329,66.570114C34.612854,66.452469,34.37677,66.270546,34.322205,66.134636L34.228516,65.901215L34.221497,66.137085C34.217468,66.266808,34.137207,66.52066,34.042053,66.701187C33.94696,66.881714,33.697815,67.529114,33.488464,68.139854C33.279114,68.750595,33.010742,69.353569,32.892151,69.479805C32.77356,69.606033,32.676514,69.764038,32.676514,69.83091C32.676514,69.897804,32.633606,69.952507,32.581299,69.952507C32.52887,69.952507,32.417542,70.021011,32.333801,70.104736C32.250122,70.188438,31.542908,70.56028,30.76239,70.930984C27.060852,72.68895,27.280518,72.47612,27.383972,74.204338C27.421265,74.82737,27.458191,75.394806,27.465881,75.465324C27.476257,75.559929,27.801086,75.593529,28.706238,75.593529C29.757996,75.593529,29.915161,75.572624,29.81073,75.446838C29.666931,75.273567,29.850952,75.149536,30.409119,75.043518C30.600464,75.007217,30.812683,74.901314,30.880737,74.808273C31.079834,74.536018,31.264832,74.745872,31.221924,75.195274C31.20105,75.414314,31.21991,75.593529,31.263611,75.593529C31.354919,75.593529,31.359314,75.564323,31.401001,74.687828C31.41803,74.330727,31.509216,73.776878,31.603821,73.457069C31.698303,73.137245,31.809204,72.760201,31.850098,72.619171C31.890991,72.478149,31.989868,72.362762,32.069763,72.362762C32.184204,72.362762,32.207642,72.509697,32.180054,73.055069L32.145081,73.747383L32.513367,73.747383C32.808228,73.747383,32.881714,73.786682,32.881714,73.944359C32.881714,74.083588,32.783997,74.162231,32.548401,74.212608C32.180298,74.291313,31.958679,74.434959,31.958679,74.594803C31.958679,74.803764,33.626465,74.488564,34.379272,74.137321C34.643738,74.013916,35.056885,74.063919,35.110168,74.225822C35.131775,74.291519,35.043091,74.376213,34.913086,74.413971C34.783081,74.451767,34.261292,74.638145,33.753601,74.828262C33.245911,75.018372,32.666016,75.202629,32.464905,75.237717C32.006409,75.317719,31.810059,75.43589,31.898315,75.578682C31.970032,75.694633,32.456604,75.645782,32.856201,75.482582L32.856445,75.482681z"/>
    <path transform="translate(199.167831,60.677273)" style="stroke:#000000;stroke-width:0.05mm;fill:none" d="M27.92157,73.842522C27.714966,73.679993,27.651306,73.538864,27.651306,73.243034C27.651306,72.760834,27.89978,72.516632,28.390381,72.516632C28.791809,72.516632,28.932861,72.633781,29.038574,73.054985C29.097046,73.288086,29.047546,73.396843,28.74939,73.695435C28.329285,74.115555,28.279785,74.124344,27.921509,73.842522L27.92157,73.842522z"/>
    <path transform="translate(199.167831,60.677273)" style="stroke:#000000;stroke-width:0.05mm;fill:none" d="M28.470764,73.28717C28.624207,73.102303,28.53656,72.824326,28.324829,72.824326C28.104309,72.824326,27.937805,73.17231,28.086914,73.321434C28.242859,73.477402,28.318481,73.470665,28.470764,73.287132L28.470764,73.28717z"/>
    <path transform="translate(199.167831,60.677273)" style="stroke:#000000;stroke-width:0.05mm;fill:none" d="M30.753906,75.525635C30.683411,75.497131,30.567993,75.497131,30.497498,75.525635C30.427002,75.554031,30.48468,75.577332,30.625732,75.577332C30.766724,75.577332,30.824463,75.554031,30.753906,75.525635z"/>
    <path transform="translate(199.167831,60.677273)" style="stroke:#000000;stroke-width:0.05mm;fill:none" d="M16.046021,75.046021L16.271362,74.806183L16.073975,74.172005C15.965393,73.823212,15.689148,73.238831,15.460022,72.873383C15.230896,72.507942,15.081177,72.208946,15.12738,72.208946C15.323853,72.208946,16.299072,73.382996,16.540283,73.909897C16.721741,74.306252,16.835632,74.450302,16.909241,74.376663C17.072144,74.213737,16.523682,72.819237,16.103638,72.328499C15.635132,71.781166,15.417969,71.721695,14.979065,72.020546C14.785461,72.152367,14.62677,72.28595,14.626404,72.317375C14.626038,72.348778,14.752625,72.527229,14.907776,72.71386C15.2995,73.185135,15.520813,73.781296,15.605591,74.593559C15.645264,74.974327,15.710022,75.285866,15.749268,75.285866C15.788574,75.285866,15.922058,75.17794,16.046021,75.046028L16.046021,75.046021z"/>
    <path transform="translate(199.167831,60.677273)" style="stroke:#000000;stroke-width:0.05mm;fill:none" d="M47.292358,74.960922C47.574402,74.909721,48.243652,74.881126,48.779541,74.897324L49.753906,74.926826L49.746887,74.426033C49.741882,74.061066,49.687561,73.887222,49.547791,73.785011C49.279907,73.589142,48.364197,73.61084,47.426392,73.835312C46.573059,74.03952,46.113159,74.278954,46.113159,74.518967C46.113159,74.716454,46.197266,74.710144,46.683655,74.476166C46.905762,74.369324,47.480469,74.200584,47.960693,74.101181C48.768494,73.93399,48.85675,73.932861,49.140198,74.086182L49.446533,74.251923L48.831177,74.256927C47.827148,74.265923,46.420898,74.719437,46.420898,75.034782C46.420898,75.157166,46.471191,75.183647,46.600403,75.129181C46.699097,75.087585,47.010681,75.011696,47.292725,74.960495L47.292358,74.960922z"/>
    <path transform="translate(199.167831,60.677273)" style="stroke:#000000;stroke-width:0.05mm;fill:none" d="M36.568909,74.223663C36.470215,74.132668,36.456482,74.148468,36.507996,74.294266C36.544495,74.397591,36.579712,74.536057,36.586304,74.601952C36.592285,74.667854,36.6203,74.636055,36.647217,74.531357C36.674133,74.426643,36.639221,74.288177,36.568909,74.223656L36.568909,74.223663z"/>
    <path transform="translate(199.167831,60.677273)" style="stroke:#000000;stroke-width:0.05mm;fill:none" d="M44.763977,73.938408C44.887634,73.861206,44.935059,73.739296,44.904175,73.577919C44.846985,73.278885,44.676941,73.152161,44.676941,73.408607C44.676941,73.516663,44.548218,73.651718,44.370117,73.730553C44.108215,73.846481,44.040649,73.843712,43.908569,73.711655C43.823486,73.626556,43.753845,73.43824,43.753845,73.29319C43.753845,73.058624,43.796326,73.02832,44.138428,73.019234C44.481689,73.010231,44.495483,73.00013,44.266663,72.926933C43.539673,72.694092,43.205811,72.976028,43.508606,73.567032C43.602783,73.75087,43.73114,73.935188,43.793762,73.976639C43.968384,74.092171,44.554749,74.069138,44.763916,73.938438L44.763977,73.938408z"/>
    <path transform="translate(199.167831,60.677273)" style="stroke:#000000;stroke-width:0.05mm;fill:none" d="M47.583557,73.372063C47.912964,73.335762,48.203674,73.250816,48.229553,73.183388C48.255432,73.115982,48.107422,72.776802,47.900696,72.429726C47.516479,71.784737,47.396179,71.71859,46.866028,71.860809C46.744385,71.89341,46.505676,72.093307,46.335571,72.304947L46.026367,72.689728L46.28595,73.125031C46.496155,73.477501,46.58728,73.548698,46.765076,73.499237C46.885864,73.465637,47.25415,73.40844,47.583557,73.37207L47.583557,73.372063z"/>
    <path transform="translate(199.167831,60.677273)" style="stroke:#000000;stroke-width:0.05mm;fill:none" d="M13.031128,72.992554L13.539185,72.978157L13.679199,72.311485C13.928345,71.125443,13.646179,69.841454,13.06842,69.532242C12.945679,69.466545,12.481934,69.372154,12.037781,69.322472C11.287476,69.238571,11.183533,69.196251,10.568909,68.725166C9.783997,68.123573,9.359131,68.013786,8.736267,68.251648C7.882019,68.577888,7.634216,69.226288,8.101196,69.913483C8.398132,70.371681,9.053406,70.505966,9.599915,70.567215C10.457764,70.855301,11.245117,70.371201,12.152527,70.588211C12.287231,70.661613,12.402588,70.765625,12.408936,70.81926C12.414917,70.872864,12.13678,71.025108,11.790039,71.157509C11.182373,71.389549,11.148132,71.42231,10.841309,72.06459C10.66626,72.431084,10.52301,72.76548,10.52301,72.807693C10.52301,72.966942,11.214172,73.092934,11.856323,73.050743C12.222961,73.026642,12.751648,73.000443,13.031067,72.992538L13.031128,72.992554z"/>
    <path transform="translate(199.167831,60.677273)" style="stroke:#000000;stroke-width:0.05mm;fill:none" d="M18.023438,72.632202C18.450623,72.413734,19.026306,72.079117,19.302673,71.888611C20.264221,71.22583,21.076172,70.61879,21.081665,70.558632C21.084656,70.525337,20.91748,70.377342,20.710083,70.229767L20.332947,69.961433L19.931763,70.323906C19.428162,70.778893,18.366455,71.466324,17.497498,71.900116C16.543396,72.376381,16.536499,72.384621,16.806763,72.727341C16.932861,72.887253,17.083435,73.02063,17.141357,73.023766C17.199341,73.026764,17.596313,72.850685,18.023499,72.632202L18.023438,72.632202z"/>
    <path transform="translate(199.167831,60.677273)" style="stroke:#000000;stroke-width:0.05mm;fill:none" d="M44.798279,72.802086C44.72467,72.728485,44.676941,72.722481,44.676941,72.786682C44.676941,72.923592,44.798218,73.044884,44.866699,72.976433C44.895874,72.947235,44.864685,72.868828,44.798279,72.802078L44.798279,72.802086z"/>
    <path transform="translate(199.167831,60.677273)" style="stroke:#000000;stroke-width:0.05mm;fill:none" d="M43.548706,72.311485C43.548706,72.255081,43.502625,72.208923,43.446167,72.208923C43.389771,72.208923,43.343567,72.255028,43.343567,72.311485C43.343567,72.367882,43.389771,72.414055,43.446167,72.414055C43.502563,72.414055,43.548706,72.367851,43.548706,72.311485z"/>
    <path transform="translate(199.167831,60.677273)" style="stroke:#000000;stroke-width:0.05mm;fill:none" d="M45.76355,72.095444C45.871033,71.976624,46.132019,71.791061,46.343567,71.683105C46.774536,71.463142,46.778809,71.456215,46.599121,71.267532C46.528137,71.193031,46.150757,70.739693,45.760559,70.260208C45.370361,69.780716,44.991455,69.322296,44.918518,69.241486C44.805725,69.116478,44.69751,69.178085,44.192993,69.654594C43.866821,69.962624,43.438904,70.338608,43.241943,70.49012C42.893311,70.758385,42.889282,70.769547,43.088074,70.917046C43.271057,71.05278,43.301025,71.04969,43.376892,70.887344C43.448669,70.733627,43.970032,70.465385,44.19696,70.465385C44.358093,70.465385,44.247681,70.645981,44.008118,70.774185C43.832397,70.868286,43.783142,70.946014,43.854248,71.017159C43.925354,71.088257,43.998291,71.082359,44.08197,70.998756C44.224365,70.856339,44.57428,70.83284,44.57428,70.96566C44.57428,71.01516,44.508179,71.11055,44.427307,71.177635C44.300354,71.282997,44.302856,71.32592,44.445618,71.492638C44.649963,71.731308,44.735474,71.685074,44.813782,71.293617C44.878967,70.967834,45.212341,70.720467,45.458801,70.815048C45.581482,70.862144,45.561035,70.94384,45.348206,71.257004C45.042847,71.706375,45.033875,71.779602,45.246765,72.083595C45.444702,72.366226,45.517151,72.367897,45.763489,72.095497L45.76355,72.095444z"/>
    <path transform="translate(199.167831,60.677273)" style="stroke:#000000;stroke-width:0.05mm;fill:none" d="M36.266602,71.690041C36.266602,71.573891,36.222473,71.506142,36.168518,71.539482C36.114502,71.572784,36.096436,71.667854,36.128235,71.750664C36.209656,71.962677,36.266602,71.937698,36.266602,71.690063L36.266602,71.690041z"/>
    <path transform="translate(199.167831,60.677273)" style="stroke:#000000;stroke-width:0.05mm;fill:none" d="M25.74707,71.707039C25.778259,71.656639,25.734192,71.448929,25.64917,71.245499C25.520569,70.937782,25.443176,70.875633,25.188293,70.875633C25.019836,70.875633,24.881958,70.903633,24.881958,70.937828C24.881958,71.047012,25.511108,71.798737,25.602478,71.798737C25.650757,71.798737,25.715881,71.757538,25.747009,71.707039L25.74707,71.707039z"/>
    <path transform="translate(199.167831,60.677273)" style="stroke:#000000;stroke-width:0.05mm;fill:none" d="M29.045044,70.978203C29.124573,70.978203,29.189697,70.924301,29.189697,70.858543C29.189697,70.79274,29.217773,70.767044,29.252197,70.801445C29.310181,70.859444,29.804443,70.57177,31.574097,69.45005L32.266235,69.01133L31.951233,68.572662L31.63623,68.134003L30.33606,69.435532C29.620972,70.151382,28.770508,70.931252,28.446106,71.168579C28.121765,71.405914,27.856384,71.645859,27.856384,71.701813C27.856384,71.757713,28.091309,71.617813,28.378418,71.390884C28.665527,71.163933,28.965515,70.978241,29.045105,70.978241L29.045044,70.978203z"/>
    <path transform="translate(199.167831,60.677273)" style="stroke:#000000;stroke-width:0.05mm;fill:none" d="M26.565918,71.121071C26.750732,71.050171,26.776062,70.707336,26.625732,70.311836C26.527222,70.052711,26.496643,70.043594,25.830872,70.074387L25.138428,70.106384L25.143433,69.638016C25.147461,69.318748,25.224548,69.063187,25.386841,68.835236C25.518494,68.65036,25.584961,68.464081,25.5354,68.418617C25.382202,68.277939,24.69751,68.194809,24.627319,68.308372C24.591431,68.36657,24.607605,68.414093,24.66333,68.414093C24.719055,68.414093,24.835449,68.484894,24.921997,68.571449C25.050476,68.699898,25.057373,68.780014,24.959778,69.007355C24.793274,69.395302,24.803284,69.390724,24.574707,69.183891C24.2948,68.930573,24.315552,69.07518,24.616089,69.472214C24.752014,69.651779,24.878967,69.914093,24.898132,70.055115C24.92865,70.279266,24.990845,70.315636,25.392578,70.344215C25.94043,70.383217,26.067932,70.473152,26.148926,70.877922C26.211304,71.190086,26.280579,71.230476,26.565735,71.121063L26.565918,71.121071z"/>
    <path transform="translate(199.167831,60.677273)" style="stroke:#000000;stroke-width:0.05mm;fill:none" d="M40.037231,71.089073C40.135132,71.03717,40.51532,70.846718,40.882019,70.665771C42.568848,69.833313,44.149414,68.592041,44.487671,67.834099C44.698914,67.360771,44.672485,67.191467,44.356628,66.994194C44.16748,66.876083,44.078003,66.903793,43.579712,67.234612C42.890747,67.692055,42.749695,67.628593,43.328186,67.121483C43.803406,66.704903,43.835815,66.589401,43.569397,66.260437L43.38501,66.032715L43.087524,66.428558C42.814697,66.791565,42.435364,67.18338,42.35675,67.18338C42.296753,67.18338,42.452576,66.826355,42.625305,66.567986C42.92926,66.113426,43.119019,65.505951,43.030518,65.27079C42.921997,64.982307,42.738525,64.875542,42.59613,65.017952C42.418518,65.19558,42.348267,65.1558,42.285522,64.842049C42.209839,64.463402,41.449036,63.698387,40.751099,63.299088C39.657104,62.673172,37.895142,62.514633,37.547607,63.010826C37.300293,63.363892,37.362183,63.528038,37.992004,64.189926C38.320496,64.535126,38.717285,65.052818,38.873779,65.34034C39.221802,65.979736,39.655518,67.349815,39.582642,67.57943C39.549011,67.68531,39.56134,67.705154,39.615845,67.633125C39.663452,67.570229,39.81781,67.483627,39.958862,67.440697C40.30011,67.33683,40.906311,66.888107,41.573669,66.245361C41.873779,65.956337,42.141968,65.742577,42.169739,65.77034C42.259766,65.860336,41.343872,67.015572,40.764832,67.542381C40.16925,68.084236,39.708801,68.412018,38.901672,68.868721C38.402283,69.151276,38.346924,69.28746,38.652893,69.480469C38.776978,69.558769,39.005554,69.527374,39.512878,69.362411C39.892944,69.238846,40.224243,69.158127,40.249146,69.183022C40.36145,69.295311,39.935059,69.73645,39.654724,69.798027C39.274109,69.88163,39.274292,69.876633,39.608398,71.055199C39.651489,71.207291,39.792908,71.218468,40.03717,71.089104L40.037231,71.089073z"/>
    <path transform="translate(199.167831,60.677273)" style="stroke:#000000;stroke-width:0.05mm;fill:none" d="M27.475281,70.577805C27.730103,70.146423,27.696045,70.055161,27.280273,70.055161C26.945679,70.055161,26.915405,70.077759,26.971191,70.285934C27.005188,70.412849,27.033691,70.597473,27.034363,70.69619C27.036377,70.973801,27.279846,70.908455,27.475159,70.577805L27.475281,70.577805z"/>
    <path transform="translate(199.167831,60.677273)" style="stroke:#000000;stroke-width:0.05mm;fill:none" d="M29.148315,69.485069C29.340332,69.233543,29.497375,69.001991,29.497375,68.970512C29.497375,68.939011,29.61554,68.758362,29.759949,68.569031C29.904358,68.379692,30.034485,68.117386,30.049072,67.98613C30.06366,67.854866,30.263,67.355156,30.491943,66.875671C30.720947,66.396187,31.053589,65.694733,31.23114,65.316887C31.408691,64.939049,31.668823,64.539589,31.809143,64.429199L32.06427,64.2285L30.601318,64.236496C29.216797,64.244499,28.663086,64.164894,27.933228,63.853081C27.780029,63.787682,27.753723,63.83448,27.753723,64.172668C27.753723,64.390617,27.709045,64.724747,27.654419,64.915199C27.562744,65.234993,27.585815,65.296318,27.956604,65.717552C28.242004,66.041763,28.39502,66.338737,28.48584,66.744629L28.613647,67.31562L28.065613,67.803894L27.517578,68.29216L27.493591,68.96833C27.475586,69.474495,27.503784,69.644501,27.605896,69.644501C27.810791,69.644501,28.061584,70.06089,28.061584,70.401016L28.061584,70.701614L28.43042,70.321815C28.633301,70.112923,28.95636,69.736214,29.148376,69.484673L29.148315,69.485069z"/>
    <path transform="translate(199.167831,60.677273)" style="stroke:#000000;stroke-width:0.05mm;fill:none" d="M22.829163,69.69268C22.830078,69.574326,22.58667,69.243011,22.266663,68.926964C21.956421,68.620552,21.702576,68.331955,21.702576,68.285614C21.702576,68.239311,21.979858,68.389679,22.318848,68.61985L22.935059,69.038345L23.036743,68.770844C23.217712,68.2948,23.148682,68.107155,22.526245,67.38398C21.945129,66.708794,21.518799,66.055161,21.659485,66.055161C21.695068,66.055161,21.899109,66.193619,22.112793,66.362854C22.326477,66.532082,22.540771,66.670235,22.589111,66.669846C22.723694,66.668846,23.339905,65.661003,23.592102,65.029526C23.625916,64.944923,23.741943,64.737213,23.850037,64.567986C23.95813,64.39875,24.049927,64.182243,24.054016,64.086861C24.058044,63.991463,24.114807,63.880493,24.179932,63.84024C24.248718,63.797745,24.27063,63.811844,24.232361,63.87384C24.196045,63.932541,24.22937,64.032982,24.30658,64.09697C24.415649,64.187469,24.457947,64.17057,24.497192,64.020569C24.524902,63.914574,24.502197,63.746559,24.446472,63.647224C24.373901,63.517494,24.384888,63.441574,24.485596,63.377815C24.562683,63.32901,24.581726,63.288315,24.528015,63.287415C24.474243,63.286552,24.609009,63.102791,24.827515,62.879051C25.168823,62.529556,25.199524,62.462601,25.045837,62.40361C24.338806,62.132309,22.690125,63.603745,21.795471,65.304482C21.632996,65.613396,21.407837,65.995583,21.295166,66.153816C21.090759,66.440842,21.090759,66.442078,21.294189,66.700356C21.544678,67.018776,21.549805,67.0989,21.318298,67.075356C20.985962,67.041557,20.896484,67.079353,20.831848,67.283531C20.796448,67.395081,20.608704,67.676376,20.414673,67.908623C20.220642,68.140877,20.06189,68.387718,20.06189,68.457153C20.06189,68.688118,20.535278,69.032814,21.611755,69.585724C22.695435,70.142334,22.82605,70.153809,22.829529,69.692596L22.829163,69.69268z"/>
    <path transform="translate(199.167831,60.677273)" style="stroke:#000000;stroke-width:0.05mm;fill:none" d="M26.518921,69.408081L26.514893,69.080803L26.360596,69.365295C26.275696,69.521751,26.234619,69.695587,26.269226,69.751572C26.38269,69.935181,26.523193,69.741577,26.518982,69.408081L26.518921,69.408081z"/>
    <path transform="translate(199.167831,60.677273)" style="stroke:#000000;stroke-width:0.05mm;fill:none" d="M24.350098,68.352875C24.442993,68.28437,24.462524,68.215401,24.39978,68.176674C24.216858,68.063614,23.94043,68.349213,24.023376,68.565498C24.081482,68.716812,24.110474,68.728119,24.148132,68.614098C24.17511,68.532303,24.265991,68.414787,24.349976,68.35289L24.350098,68.352875z"/>
    <path transform="translate(199.167831,60.677273)" style="stroke:#000000;stroke-width:0.05mm;fill:none" d="M26.793579,67.840096C27.357788,67.262215,27.408752,67.125343,27.12616,66.947113C26.923218,66.819092,25.913086,67.845772,25.909851,68.183372C25.905823,68.565643,26.19458,68.453621,26.793579,67.840096z"/>
    <path transform="translate(199.167831,60.677273)" style="stroke:#000000;stroke-width:0.05mm;fill:none" d="M32.07019,67.067986C32.121765,67.060982,32.217346,67.049385,32.28241,67.042381C32.393555,67.03038,33.342651,65.706741,33.720032,65.037476C33.882507,64.749367,33.908508,64.739922,34.220703,64.855927C34.401855,64.923225,34.612488,65.072945,34.688782,65.188644C34.795471,65.350403,34.909302,65.389458,35.181335,65.357697C35.465759,65.324493,35.568176,65.246788,35.703491,64.961655C35.890869,64.566826,36.118103,64.429825,36.294006,64.605682C36.551697,64.863358,36.637146,64.711365,36.661377,63.952644C36.689148,63.080452,36.707092,63.094101,35.864807,63.344231C35.566956,63.432632,35.299988,63.481781,35.271545,63.453346C35.243164,63.424942,35.102966,63.446342,34.960144,63.500343C34.766663,63.573845,34.638123,63.558243,34.456177,63.439049C34.114441,63.215134,33.47876,63.392746,33.194824,63.79155C33.079163,63.953964,32.984558,64.122429,32.984558,64.165901C32.984558,64.303627,32.129761,66.00238,32.042419,66.038109C31.996521,66.056908,31.958923,66.121109,31.958923,66.18087C31.958923,66.24057,31.774292,66.581764,31.548645,66.939041C31.322998,67.296326,31.138367,67.628777,31.138367,67.677826C31.138367,67.726921,31.046082,67.850548,30.933228,67.952644C30.820435,68.054741,30.728088,68.188232,30.728088,68.249283C30.728088,68.310379,31.008911,68.072418,31.352173,67.720573C31.695374,67.368721,32.018494,67.075073,32.070129,67.068024L32.07019,67.067986z"/>
    <path transform="translate(199.167831,60.677273)" style="stroke:#000000;stroke-width:0.05mm;fill:none" d="M32.429565,67.824913C32.317505,67.712875,32.240723,67.891014,32.321106,68.076385C32.3974,68.252113,32.402893,68.251953,32.445435,68.07238C32.46991,67.969254,32.462708,67.857712,32.429504,67.824524L32.429565,67.824913z"/>
    <path transform="translate(199.167831,60.677273)" style="stroke:#000000;stroke-width:0.05mm;fill:none" d="M24.72821,67.798714C24.763123,67.742317,24.947021,67.696159,25.137024,67.696159C25.418335,67.696159,25.510925,67.639061,25.635925,67.388458C25.779785,67.100029,25.7771,67.080765,25.592102,67.080765C25.483582,67.080765,25.394836,67.029663,25.394836,66.967224C25.394836,66.904823,25.46405,66.881729,25.548706,66.915924C25.633301,66.950127,25.77179,67.006226,25.856384,67.040436C26.193542,67.17688,25.991272,66.763657,25.599976,66.516647C25.374329,66.374207,25.189697,66.21804,25.189697,66.169609C25.189697,66.121208,25.350891,65.971764,25.547974,65.837563C25.744995,65.703369,25.906555,65.55896,25.906982,65.516647C25.907349,65.47435,25.951782,65.439751,26.005676,65.439751C26.05957,65.439751,26.278809,65.320976,26.492859,65.175819C26.859985,64.926849,26.888977,64.867241,27.0047,64.124535C27.072205,63.69149,27.095276,63.309464,27.055969,63.275589C27.016663,63.241684,26.796082,63.234283,26.565735,63.259087C26.153625,63.30349,26.141357,63.316689,25.796509,64.089752C25.60376,64.521812,25.318909,65.020203,25.163513,65.197273C24.924927,65.469124,24.164001,67.454102,24.164001,67.804588C24.164001,67.933891,24.647644,67.928848,24.728088,67.798592L24.72821,67.798714z"/>
    <path transform="translate(199.167831,60.677273)" style="stroke:#000000;stroke-width:0.05mm;fill:none" d="M27.810059,66.407249C27.372437,65.739357,26.953552,65.488289,26.641479,65.706848C26.344971,65.914528,26.36322,66.026245,26.705872,66.101509C26.862854,66.136009,27.174377,66.276665,27.398193,66.414146C27.921448,66.735558,28.024048,66.733841,27.810059,66.40715L27.810059,66.407249z"/>
    <path transform="translate(199.167831,60.677273)" style="stroke:#000000;stroke-width:0.05mm;fill:none" d="M35.343567,66.166077C35.343567,66.114281,35.372437,65.996536,35.407837,65.904427C35.458862,65.771561,35.416809,65.744286,35.206604,65.772499C34.853271,65.819794,34.774353,65.914841,34.931274,66.103928C35.073425,66.275223,35.343567,66.315948,35.343567,66.166023L35.343567,66.166077z"/>
    <path transform="translate(199.167831,60.677273)" style="stroke:#000000;stroke-width:0.05mm;fill:none" d="M23.935486,65.458977C23.997009,65.274376,23.785034,65.313171,23.713501,65.49958C23.675171,65.59948,23.69812,65.646355,23.77301,65.621368C23.840027,65.599068,23.913147,65.52597,23.935486,65.458961L23.935486,65.458977z"/>
    <path transform="translate(199.167831,60.677273)" style="stroke:#000000;stroke-width:0.05mm;fill:none" d="M24.164124,64.812256C24.164124,64.69944,24.11792,64.635651,24.061523,64.670517C24.005127,64.705421,23.958984,64.82621,23.958984,64.939026C23.958984,65.051849,24.005188,65.115639,24.061523,65.080765C24.11792,65.045868,24.164124,64.925079,24.164124,64.812256z"/>
    <path transform="translate(199.167831,60.677273)" style="stroke:#000000;stroke-width:0.05mm;fill:none" d="M32.087219,63.693138C32.521301,63.489258,32.45343,63.289429,31.98468,63.391235C30.912354,63.62413,29.430542,63.595367,28.292358,63.319534C28.161682,63.287834,28.061584,63.311539,28.061584,63.373734C28.061584,63.523376,28.393799,63.689857,28.912537,63.800156C29.521301,63.929596,31.743286,63.854652,32.087219,63.69313L32.087219,63.693138z"/>
    <path transform="translate(199.167831,60.677273)" style="stroke:#000000;stroke-width:0.05mm;fill:none" d="M41.644714,60.919838C41.838501,59.913406,41.80365,59.977905,42.119385,60.041046C42.28064,60.073341,42.440186,60.055046,42.473877,60.000443C42.507568,59.945847,42.425903,59.901245,42.292358,59.901245C42.158752,59.901245,41.9599,59.833443,41.850403,59.750664C41.740906,59.667862,41.616699,59.59861,41.574402,59.596809C41.532104,59.59481,41.497498,59.91391,41.497498,60.30545C41.497498,60.696991,41.452026,61.045471,41.396362,61.079849C41.340759,61.11425,41.1073,60.961792,40.877625,60.741089C40.205505,60.095291,40.068359,60.051453,39.51239,60.30471C39.250366,60.424095,39.03595,60.566765,39.03595,60.621765C39.03595,60.761307,39.160156,60.746475,39.40033,60.578262C39.882751,60.240334,40.54303,60.436531,40.645386,60.948235C40.687988,61.1614,40.7854,61.25782,41.023254,61.322456C41.409485,61.427383,41.56665,61.325455,41.644775,60.919792L41.644714,60.919838z"/>
    <path transform="translate(199.167831,60.677273)" style="stroke:#000000;stroke-width:0.05mm;fill:none" d="M40.86261,59.627159C40.826294,59.197044,40.574341,59.018471,40.574341,59.422806C40.574341,59.75029,40.671326,60.003845,40.796631,60.003845C40.850403,60.003845,40.880127,59.834335,40.86261,59.627159z"/>
    <path transform="translate(199.167831,60.677273)" style="stroke:#000000;stroke-width:0.05mm;fill:none" d="M43.183716,59.237877C42.923218,59.040871,42.770874,59.038887,42.93335,59.234879C43.00354,59.319481,43.133423,59.388718,43.221924,59.388718C43.350708,59.388718,43.343079,59.358719,43.183716,59.238136L43.183716,59.237877z"/>
    <path transform="translate(199.167831,60.677273)" style="stroke:#000000;stroke-width:0.05mm;fill:none" d="M33.292297,58.985207C35.048523,58.736748,36.390686,58.456612,37.241028,58.160995C38.160522,57.841347,39.03595,57.418159,39.035522,57.293526C39.034973,57.13855,38.645325,56.51667,38.548767,56.51667C38.504883,56.51667,38.215698,56.610069,37.90625,56.724297C36.451538,57.261139,35.776794,57.37471,34.010254,57.380119C33.079468,57.383118,31.365234,57.336121,30.200867,57.27594C29.036499,57.215836,27.882629,57.193436,27.63678,57.226234C27.231934,57.280235,27.186584,57.314934,27.15625,57.59359C27.114746,57.974037,26.93335,58.193954,26.93335,57.86377C26.93335,57.735954,26.886169,57.543121,26.828369,57.435234C26.728577,57.248718,26.621582,57.242172,24.648865,57.301987C20.019775,57.442345,16.061523,56.722572,16.061523,55.740448C16.061523,55.410484,16.328125,55.41581,16.411316,55.747444C16.48584,56.044266,16.65863,56.084953,16.737976,55.824348C16.833679,55.510208,17.233948,54.773064,17.308838,54.773064C17.459167,54.773064,17.518555,54.336716,17.380127,54.249016C17.161133,54.110268,17.088867,54.139595,16.986572,54.408775C16.934082,54.546883,16.58905,54.89724,16.21991,55.18737C15.63623,55.646072,15.548706,55.758873,15.548706,56.052299C15.548706,57.007072,17.301147,57.757484,21.431274,58.571289C24.57782,59.191284,25.525269,59.272675,29.087219,59.228951C31.12793,59.20385,32.17572,59.14315,33.292358,58.985191L33.292297,58.985207z"/>
    <path transform="translate(199.167831,60.677273)" style="stroke:#000000;stroke-width:0.05mm;fill:none" d="M42.317932,59.1819C42.317932,59.020126,41.872375,58.373581,41.719604,58.313721C41.644409,58.284218,41.601501,58.294716,41.62439,58.33712C41.647278,58.379417,41.750427,58.610268,41.853638,58.850006C42.021423,59.239655,42.317932,59.451607,42.317932,59.181908L42.317932,59.1819z"/>
    <path transform="translate(199.167831,60.677273)" style="stroke:#000000;stroke-width:0.05mm;fill:none" d="M39.955322,58.984947C40.093323,58.727112,40.092712,57.881386,39.954407,57.795937C39.895508,57.759537,39.791687,57.773537,39.723633,57.827042C39.65564,57.880539,39.473022,57.954613,39.317871,57.991669C39.000671,58.067474,38.963501,58.175133,39.189697,58.362831C39.31311,58.46524,39.37738,58.462631,39.514404,58.349731C39.667664,58.223488,39.678589,58.235741,39.620667,58.468468C39.547546,58.76207,39.630981,59.183327,39.762146,59.183327C39.810059,59.183327,39.896912,59.094032,39.955322,58.98494L39.955322,58.984947z"/>
    <path transform="translate(199.167831,60.677273)" style="stroke:#000000;stroke-width:0.05mm;fill:none" d="M43.239441,58.187332C43.241455,57.995972,42.825806,57.653221,42.665649,57.714668C42.462646,57.792572,42.486511,57.89341,42.794617,58.25956C43.060364,58.575409,43.234863,58.547073,43.239441,58.187363L43.239441,58.187332z"/>
    <path transform="translate(199.167831,60.677273)" style="stroke:#000000;stroke-width:0.05mm;fill:none" d="M41.446167,57.408882C41.615417,57.322578,41.867065,57.144257,42.005493,57.01255C42.656433,56.392998,43.378784,55.90316,43.18927,56.209755C43.1521,56.269958,43.234253,56.263458,43.386353,56.19416C43.529907,56.128761,43.674377,55.989952,43.70752,55.885689C43.740601,55.781425,43.815735,55.696129,43.874451,55.696129C43.938477,55.696129,43.954956,55.583099,43.915649,55.414078C43.868774,55.212227,43.878662,55.174927,43.950256,55.282898C44.075867,55.472176,44.131287,55.417732,44.208618,55.029243C44.256714,54.787552,44.249146,54.765656,44.172913,54.926895C43.972717,55.350494,44.071228,54.854698,44.309998,54.236618C44.606384,53.469513,45.080994,51.499256,44.983826,51.439236C44.895508,51.384636,44.325073,51.995495,43.754944,52.755302C43.508301,53.084015,43.129089,53.504784,42.912292,53.690361C42.524719,54.022095,42.519165,54.037064,42.580139,54.579895C42.640137,55.114494,42.632324,55.137466,42.331604,55.303665C42.048401,55.460205,42.018311,55.527893,41.990051,56.072891L41.959045,56.670486L41.497498,56.697487C40.576416,56.751488,40.574402,56.753082,40.574402,57.460815L40.574402,58.093437L40.856445,57.829544C41.011597,57.684402,41.276978,57.495079,41.446167,57.408806L41.446167,57.408882z"/>
    <path transform="translate(199.167831,60.677273)" style="stroke:#000000;stroke-width:0.05mm;fill:none" d="M39.902893,57.158958C39.996277,56.915649,40.105225,55.696159,40.03363,55.696159C39.846497,55.696159,39.03595,56.118645,39.03595,56.216171C39.03595,56.280571,39.151306,56.470337,39.292358,56.637939C39.433411,56.805534,39.548767,57.031425,39.548767,57.139915C39.548767,57.385811,39.810486,57.399879,39.902893,57.15892L39.902893,57.158958z"/>
    <path transform="translate(199.167831,60.677273)" style="stroke:#000000;stroke-width:0.05mm;fill:none" d="M43.957458,56.916992C43.583801,56.622269,43.343628,56.497353,43.343628,56.597748C43.343628,56.712646,43.761108,57.091537,43.959045,57.156242C44.223816,57.242844,44.223083,57.126442,43.958069,56.916992L43.957458,56.916992z"/>
    <path transform="translate(199.167831,60.677273)" style="stroke:#000000;stroke-width:0.05mm;fill:none" d="M37.600037,56.401535C38.079529,56.23584,38.553101,56.019081,38.652466,55.919861C38.822632,55.749916,38.823303,55.70993,38.66394,55.230621C38.394226,54.419296,38.308716,54.36274,37.353394,54.363403C36.010925,54.364319,35.237488,54.701141,35.389893,55.21846C35.42572,55.340172,35.495483,55.703491,35.544922,56.025848C35.594299,56.348198,35.666992,56.664162,35.706482,56.727982C35.808167,56.892532,36.548645,56.764877,37.600098,56.401527L37.600037,56.401535z"/>
    <path transform="translate(199.167831,60.677273)" style="stroke:#000000;stroke-width:0.05mm;fill:none" d="M44.956604,56.401154C45.042297,56.315453,45.014404,56.196495,44.848938,55.94088C44.595093,55.548859,44.498474,55.51873,44.310669,55.773079C44.197205,55.926712,44.216858,55.993202,44.446777,56.234619C44.747742,56.550652,44.792542,56.565269,44.956665,56.401154L44.956604,56.401154z"/>
    <path transform="translate(199.167831,60.677273)" style="stroke:#000000;stroke-width:0.05mm;fill:none" d="M41.669617,55.791664C41.610718,55.294701,41.621521,55.264175,41.914001,55.09935C42.217896,54.928101,42.219543,54.922295,42.154175,54.244835L42.088379,53.562744L42.559326,53.354424C42.883362,53.21109,43.135132,52.994263,43.366455,52.659454C44.768616,50.629673,45.58197,49.701313,46.010315,49.641914C46.326111,49.598114,46.391113,49.659111,46.667969,50.25872C46.921387,50.807652,46.996521,50.886024,47.378296,50.999783C47.632935,51.075684,48.405396,51.126823,49.292419,51.126564C50.747803,51.126144,50.791504,51.11956,51.336975,50.821404C52.831299,50.00441,54.595093,47.761692,55.327332,45.747444C55.949768,44.035412,55.79425,42.253212,54.971985,41.674923C54.338257,41.229233,53.403748,40.979256,52.369324,40.978714C51.408752,40.978222,51.386597,40.983711,50.803528,41.373924C49.227905,42.428123,48.18512,44.266922,47.658813,46.919075C47.438477,48.029324,47.263,48.070503,47.091064,47.052284C47.025391,46.663025,46.830872,46.612183,46.830872,46.984283C46.830872,47.093773,46.789246,47.183361,46.738342,47.183361C46.381042,47.183361,46.293152,44.684479,46.613403,43.631561C46.904358,42.674881,47.659912,41.143188,47.874451,41.075104C47.977417,41.042404,48.061646,40.952042,48.061646,40.874252C48.061646,40.796452,48.215332,40.464951,48.403198,40.137573C49.369019,38.454292,49.327209,38.542145,49.105835,38.660614C48.99292,38.721016,48.807312,38.921097,48.693359,39.105145C48.466431,39.471745,47.88269,40.066185,47.818115,39.996395C47.755615,39.928894,47.935486,38.732597,48.310364,36.721825C48.39978,36.242332,48.474182,35.688484,48.475769,35.491055C48.477783,35.293613,48.562378,34.889763,48.664673,34.593613C48.766968,34.297462,48.815247,34.055153,48.771912,34.055153C48.594055,34.055153,47.933899,34.964806,47.494934,35.814705C47.237244,36.313614,46.982422,36.721825,46.928711,36.721825C46.874939,36.721825,46.830994,36.863007,46.830994,37.035564C46.830994,37.208122,46.790222,37.324074,46.740295,37.293236C46.621948,37.220135,46.533875,36.619255,46.641479,36.619255C46.716309,36.619255,46.675781,36.483246,46.412537,35.850025C46.139832,35.194023,45.982788,34.118332,45.971497,32.828262L45.95929,31.435034L45.602112,30.873295C45.40564,30.564342,45.139343,30.153793,45.010376,29.960964C44.683411,29.472204,43.273865,28.006464,42.779846,27.641464C42.554199,27.474764,42.346497,27.315035,42.318298,27.286505C42.122253,27.088255,41.580688,26.773165,41.510437,26.816555C41.46344,26.845654,41.397217,27.228495,41.363281,27.667404C41.329407,28.106304,41.272888,28.562634,41.237732,28.681454C41.178528,28.881754,41.238708,28.909504,42.070313,29.062115C42.908203,29.215954,43.254333,29.358395,43.119141,29.493645C43.087646,29.525143,42.767639,29.503643,42.40802,29.444843C41.493225,29.296402,40.056396,29.314873,39.087524,29.487543C37.971436,29.686424,37.045288,29.903214,36.882813,30.003633C36.796326,30.057034,36.772888,30.046833,36.817322,29.974934C36.898621,29.843414,37.476563,29.542334,37.647766,29.542334C37.712952,29.542334,37.852051,29.479633,37.95697,29.402905C38.141174,29.268185,38.139587,29.251675,37.910095,28.915724C37.512634,28.333914,35.828186,26.753004,35.026184,26.209003C34.610352,25.926952,34.178467,25.614002,34.066345,25.513554C33.780457,25.257313,33.554993,25.332664,33.517273,25.697063C33.477844,26.076963,33.003296,27.494074,32.854248,27.676634C32.767456,27.782974,32.678894,27.740234,32.428894,27.471504C31.935669,26.941223,30.368958,25.542334,30.26825,25.542334C30.239746,25.542334,29.904724,25.320704,29.523804,25.049824C29.142822,24.778934,28.784973,24.529493,28.728577,24.495514C28.666199,24.457912,28.624878,24.620693,28.623108,24.911102C28.621094,25.173664,28.598389,25.451332,28.571838,25.528143C28.543762,25.609344,28.714294,25.804493,28.979492,25.994463C29.352478,26.261623,29.459534,26.413704,29.567261,26.829174C29.781738,27.656374,29.747498,27.856873,29.338684,28.168713C29.041382,28.395483,28.980103,28.503754,29.005371,28.757763C29.030701,29.012594,29.096741,29.084545,29.370239,29.154894C29.593567,29.212395,29.793396,29.375683,29.973633,29.647984C30.121826,29.871933,30.317749,30.055054,30.408936,30.054913C30.500122,30.054783,30.736328,29.912773,30.933777,29.739323C31.281982,29.433424,31.315186,29.425724,32.040405,29.482193L32.788025,29.540394L32.989075,29.071314C33.09967,28.813324,33.190125,28.508373,33.190125,28.393654C33.190125,28.227394,33.236938,28.197613,33.420898,28.246904C33.547852,28.280903,33.824768,28.309404,34.036316,28.310104C34.247864,28.310875,34.420898,28.357704,34.420898,28.414074C34.420898,28.470474,34.300964,28.516634,34.154358,28.516634C33.878662,28.516634,33.292725,29.037743,33.292725,29.282883C33.292725,29.353884,33.195129,29.536163,33.075806,29.687843C32.910461,29.898052,32.794556,29.951775,32.588623,29.913723C31.596558,29.730442,31.606262,29.729122,31.113892,30.112753C30.492493,30.596903,30.180054,30.567343,29.757813,29.984444C29.556946,29.707163,29.364746,29.552593,29.21582,29.548542C28.857361,29.538544,28.574768,29.187553,28.574768,28.751732C28.574768,28.453613,28.65448,28.289864,28.943359,27.993942C29.305481,27.623074,29.310425,27.606792,29.224609,27.067532C29.15271,26.615582,29.08844,26.495232,28.860901,26.386173C28.708923,26.313272,28.495178,26.140121,28.385986,26.001293L28.187439,25.748783L27.867798,26.075743C27.640137,26.308613,27.516479,26.371021,27.438049,26.292612C27.359619,26.214212,27.464722,26.028452,27.803467,25.647133C28.221985,25.175901,28.27063,25.072992,28.209656,24.788502C28.092346,24.241661,27.972534,24.088531,27.722412,24.165802C27.255676,24.310013,26.653259,24.659111,25.947998,25.194073C25.546814,25.498352,25.171387,25.747322,25.113647,25.747322C24.98114,25.747322,24.705933,25.332491,24.625305,25.01123C24.550903,24.714672,23.869385,24.239971,22.831299,23.76152C21.625854,23.205971,21.287781,23.080582,20.998291,23.081652C20.626526,23.082651,19.704163,23.528131,19.087952,24.003551C18.387268,24.544111,18.151794,24.619871,17.54248,24.500761C16.615417,24.319551,15.373596,24.436861,13.856934,24.849091C13.292114,25.00259,12.47229,25.44556,12.47229,25.597261C12.47229,25.666061,12.368469,25.794741,12.241516,25.88327L12.010742,26.04425L12.235474,26.049252C12.35907,26.05225,12.485291,26.014051,12.51593,25.964451C12.546631,25.914852,12.663879,25.850151,12.776611,25.820671C13.194885,25.7113,12.788635,26.14307,12.085938,26.55479C11.22876,27.057011,10.277893,27.911442,9.643799,28.74925C8.761597,29.91489,7.626465,32.684853,7.046997,35.086102C6.72406,36.4244,6.399719,38.484642,6.496704,38.581642C6.544189,38.629143,6.730591,38.62574,6.910889,38.573639C7.343628,38.449539,7.437439,38.617043,7.017212,38.7635C6.52063,38.936623,6.318359,39.169807,6.318359,39.569298C6.318359,39.89048,6.340332,39.917458,6.549133,39.852219C6.938477,39.73053,7.698608,39.61264,7.779907,39.661331C7.967651,39.773743,7.822815,39.877571,7.414185,39.92363C7.170715,39.951134,6.847656,40.054691,6.696228,40.1539C6.351501,40.379772,6.335022,40.822872,6.627441,42.002983C7.200867,44.317322,7.857544,45.527649,9.96637,48.15683C10.509338,48.833752,11.195007,49.756832,11.490051,50.208115C12.05249,51.068333,12.218689,51.248123,12.472229,51.270882C13.622314,51.374146,16.113708,51.389862,16.933777,51.298981C19.915955,50.968712,20.797302,50.855354,21.497864,50.711945C21.920959,50.625343,22.926697,50.418842,23.73291,50.253075C25.493103,49.891102,26.173706,49.862411,26.263794,50.146355C26.335815,50.373333,26.674011,50.438343,28.258606,50.529861C29.384033,50.594864,29.525208,50.575165,31.754272,50.041901C33.181091,49.700562,33.733398,49.558102,34.113281,49.433464C34.254272,49.387161,34.885742,49.277153,35.516541,49.18895C37.37146,48.92955,38.096741,48.992714,37.94043,49.40004C37.910645,49.477741,37.939453,49.541389,38.004028,49.541389C38.085205,49.541389,38.112549,49.294182,38.091919,48.746521L38.06189,47.951653L37.190125,47.829948C36.000366,47.66386,35.609558,47.539513,34.820129,47.07584C33.441772,46.266258,32.688843,45.455162,32.01532,44.054211C31.519958,43.02388,31.241394,42.012398,31.241394,41.244308C31.241394,40.6474,31.127441,40.534988,30.763794,40.773239C30.567017,40.902161,30.386475,40.928761,30.050354,40.878361C29.802856,40.841263,29.600342,40.767551,29.600342,40.714592C29.600342,40.66169,29.484985,40.61829,29.343933,40.61829C29.202942,40.61829,29.087524,40.572189,29.087524,40.515732C29.087524,40.459328,29.016113,40.41317,28.928772,40.41317C28.656189,40.41317,27.811096,39.46925,27.459595,38.772141L27.123474,38.105469L27.204651,38.61829C27.325684,39.382439,27.26825,40.376633,27.080139,40.772987C26.988647,40.965759,26.76825,41.216721,26.590393,41.330688C26.201477,41.579849,26.393921,41.601868,27.096802,41.388588C27.373718,41.304588,27.784912,41.235809,28.010559,41.235748C28.546692,41.235611,29.382019,41.630577,29.736511,42.05188C30.024536,42.394157,30.318237,42.99556,30.318237,43.242935C30.318237,43.469894,30.03418,43.290436,29.966492,43.020767C29.863098,42.608868,29.086243,41.882458,28.614197,41.756268C27.548401,41.47139,26.222961,42.195869,25.577698,43.415977C25.400513,43.750988,25.348145,44.023155,25.346313,44.618248C25.342285,45.866947,25.820557,46.492416,27.206787,47.052258L27.736267,47.266106L27.479126,46.754177C27.337708,46.472618,27.135498,45.939865,27.029846,45.570297C26.924133,45.200718,26.809937,44.870628,26.776123,44.836746C26.742249,44.802849,26.631714,44.884949,26.530518,45.01915C26.299622,45.325249,26.088257,45.219269,26.17865,44.842735C26.377747,44.01355,26.92511,43.393528,27.680908,43.141129C28.31958,42.927837,28.602478,42.934418,29.06604,43.173325C29.553101,43.424385,30.170532,44.057854,30.019287,44.151337C29.942505,44.198738,29.939697,44.280556,30.010315,44.412537C30.066895,44.518219,30.183411,44.938599,30.269226,45.346718C30.496765,46.428375,30.254211,47.104103,29.500366,47.488686C29.090759,47.697636,28.223816,47.771614,28.121643,47.606323C28.091431,47.557426,27.956848,47.538525,27.822571,47.564224C27.37677,47.649422,25.964172,46.793282,25.460022,46.132275C25.314819,45.941895,25.120361,45.490795,25.027893,45.129837C24.883606,44.566666,24.878357,44.392853,24.990784,43.904865C25.140076,43.256824,25.316833,42.858093,25.655518,42.405167L25.891541,42.089535L25.361389,42.096535C25.069763,42.100533,24.744141,42.061737,24.637695,42.011234C24.490967,41.941536,24.455933,41.954334,24.492554,42.063934C24.550659,42.237614,24.174805,43.628014,23.857361,44.413612C23.731995,44.723862,23.524292,45.254635,23.395813,45.593094C23.149414,46.242012,22.912781,46.410622,22.685242,46.099396C22.594421,45.975182,22.532715,45.956741,22.482056,46.038696C22.438782,46.108795,22.515381,46.204666,22.671509,46.275826C22.815735,46.341522,22.933289,46.445564,22.9328,46.507023C22.932312,46.568523,22.701538,46.887894,22.419983,47.216812C22.138428,47.545742,21.908081,47.880352,21.908081,47.960403C21.908081,48.040401,21.863464,48.105942,21.809082,48.105942C21.754578,48.105942,21.570313,48.242542,21.399536,48.409492C21.22876,48.576454,20.892517,48.763344,20.652405,48.824814C19.963684,49.001122,19.869385,49.065983,20.241455,49.107445C20.424805,49.127842,20.574768,49.187843,20.574768,49.240654C20.574768,49.293449,20.575745,49.37133,20.576782,49.413643C20.577759,49.45594,20.266418,49.524231,19.88446,49.565384C19.502502,49.606583,19.074646,49.658279,18.933655,49.680363C18.792664,49.702461,18.521606,49.726463,18.33136,49.733765C18.040771,49.744865,18.00531,49.770863,18.109436,49.896343C18.313354,50.142021,18.138733,50.278103,17.825317,50.117851C17.657959,50.032253,17.064087,49.956573,16.318298,49.925713C15.065308,49.87381,14.611328,49.764603,13.446533,49.23452C11.973328,48.564079,10.480713,47.083023,9.828491,45.644424C9.522888,44.970333,9.206665,43.992271,9.128113,43.477951C9.090393,43.231052,9.026855,42.982895,8.986938,42.926483C8.947021,42.870083,8.857666,42.429672,8.788391,41.947823C8.679688,41.191822,8.686035,40.952835,8.834717,40.204231C9.471497,36.996796,11.520447,35.046272,14.812195,34.513874C15.804504,34.353382,16.681458,34.412415,17.833801,34.717255C18.601318,34.92028,20.07373,35.593643,20.002441,35.708992C19.972168,35.758095,20.019226,35.798294,20.107178,35.798294C20.195068,35.798294,20.26709,35.849392,20.26709,35.911835C20.26709,35.974232,20.333191,36.000031,20.41394,35.969032C20.494751,35.938034,20.76886,36.071564,21.023193,36.265755C21.277527,36.45993,21.511414,36.618813,21.54303,36.618813C21.574646,36.618813,21.684143,36.699612,21.786377,36.798302C21.888611,36.897003,22.184753,37.15239,22.444397,37.365799C22.704041,37.579201,23.255005,38.104691,23.668701,38.533562C25.03241,39.947159,25.657837,40.184929,26.331848,39.545982C26.536743,39.351761,26.726196,39.214722,26.752869,39.241425C26.779541,39.26812,26.831055,39.006172,26.86731,38.659302C26.953186,37.837784,27.125061,37.278389,27.355835,37.069561C27.644592,36.80825,27.828064,36.960522,27.905823,37.525993C27.994751,38.17247,28.49408,38.7883,29.124573,39.029083C30.027588,39.37394,30.763855,38.90509,31.852295,37.29213C32.315918,36.605091,33.308167,35.354572,33.64801,35.029072C34.866028,33.862461,36.463379,32.895042,38.06189,32.355911C39.153809,31.98764,41.002747,31.893791,42.01062,32.155491C43.010681,32.415161,43.989258,32.97213,44.578796,33.617172C45.62146,34.758022,46.01123,36.220192,46.007813,38.977791C46.006836,39.908562,45.960632,40.84317,45.905579,41.05471C45.850464,41.266251,45.762939,41.606392,45.710938,41.81057C45.602661,42.23592,44.08844,45.31913,43.887451,45.523582C43.705688,45.708488,43.719421,45.824249,43.959351,46.129288C44.121826,46.335838,44.16449,46.545372,44.16449,47.136917C44.16449,47.881317,44.087219,48.03912,43.778198,47.92543C43.682068,47.890129,43.66571,47.707939,43.715088,47.225708C43.768005,46.709309,43.74646,46.519829,43.611816,46.314247C43.518311,46.171497,43.397583,46.054707,43.343628,46.054707C43.289612,46.054707,43.002258,46.240356,42.704956,46.467255C42.135132,46.902157,41.299561,47.351856,40.877441,47.450775C40.739136,47.483177,40.372131,47.556698,40.061829,47.614117C39.751587,47.671516,39.465515,47.747997,39.426086,47.784046C39.306641,47.893333,39.032593,49.061264,39.086548,49.231224C39.114258,49.318527,39.371582,49.501434,39.658386,49.637596C39.94519,49.773758,40.372498,50.087204,40.608032,50.334156C41.092957,50.842674,41.592712,51.954906,41.597351,52.535835C41.600342,52.937798,41.440369,53.155243,41.365112,52.851097C41.309326,52.625435,41.391541,53.209984,41.455139,53.490608C41.559692,53.952354,41.375427,54.484825,40.971069,54.889183C40.582092,55.278175,40.570801,55.308846,40.636169,55.801414L40.703796,56.311119L41.217712,56.311119L41.731628,56.311119L41.669617,55.791664z"/>
    <path transform="translate(199.167831,60.677273)" style="stroke:#000000;stroke-width:0.05mm;fill:none" d="M49.008423,50.70256C48.426819,50.364311,48.282043,50.049053,48.259216,49.071304C48.241333,48.302113,48.264221,48.209763,48.707703,47.281494C49.634827,45.340004,50.660095,44.303604,52.298279,43.651894C52.862793,43.427322,53.702576,43.328964,53.702576,43.487419C53.702576,43.556419,53.608398,43.637428,53.493286,43.667542C53.166016,43.753143,53.315125,43.937653,53.828735,44.082722C54.468323,44.263359,54.678528,44.687553,54.58429,45.607384C54.480347,46.622261,54.115295,47.337021,53.116943,48.480644C52.097717,49.64817,51.269531,50.38887,50.590881,50.739799C50.079041,51.004501,49.504333,50.990971,49.008423,50.702599L49.008423,50.70256z"/>
    <path transform="translate(199.167831,60.677273)" style="stroke:#000000;stroke-width:0.05mm;fill:none" d="M43.035156,49.438225C42.947266,49.273972,42.958679,49.218491,43.090759,49.167793C43.287781,49.092194,43.603394,49.370972,43.50354,49.532471C43.393188,49.711082,43.155579,49.663273,43.035095,49.438171L43.035156,49.438225z"/>
    <path transform="translate(199.167831,60.677273)" style="stroke:#000000;stroke-width:0.05mm;fill:none" d="M30.215454,37.660942C30.215454,36.869774,31.438416,34.763145,32.697327,33.385643C33.142273,32.898815,33.805176,32.404053,33.805176,32.558804C33.805176,32.584904,33.596436,32.828415,33.34137,33.099903C32.443848,34.055061,31.294434,35.956722,30.935242,37.080704C30.786011,37.547745,30.671143,37.715866,30.403381,37.859146C30.241211,37.945946,30.215454,37.918846,30.215454,37.660942z"/>
    <path transform="translate(199.167831,60.677273)" style="stroke:#000000;stroke-width:0.05mm;fill:none" d="M9.189819,36.062386C9.189819,35.981785,9.247498,35.853096,9.318054,35.776375C9.549072,35.524994,9.710571,35.183266,9.598328,35.183266C9.479858,35.183266,9.720642,34.674583,10.05188,34.224915C10.614685,33.460953,12.47113,32.352413,13.579468,32.118492C14.677979,31.886644,17.025513,32.059193,17.548767,32.410225C17.605164,32.448025,17.939819,32.568245,18.292358,32.677284C18.644958,32.786324,18.933411,32.910164,18.933411,32.952477C18.933411,32.994774,19.028381,33.029373,19.144592,33.029373C19.260742,33.029373,19.327271,33.075474,19.292358,33.131943C19.257446,33.188343,19.299377,33.234505,19.38623,33.234505C19.472717,33.234505,19.856262,33.402813,20.238464,33.608524C21.617859,34.350983,22.022644,34.757591,20.849854,34.222672C20.2005,33.926495,18.267273,33.258934,17.497437,33.065063C16.50415,32.814922,14.64093,32.768433,13.783752,32.972363C12.218323,33.344852,10.915222,34.243713,9.722412,35.773804C9.374207,36.220474,9.189758,36.320385,9.189758,36.062313L9.189819,36.062386z"/>
    <path transform="translate(199.167831,60.677273)" style="stroke:#000000;stroke-width:0.05mm;fill:none" d="M10.891357,33.811832C11.065674,33.660973,11.296448,33.466824,11.404175,33.380394C11.586914,33.233753,11.582886,33.231544,11.343689,33.347393C10.981323,33.522865,10.215454,34.161663,10.215454,34.288433C10.215454,34.346832,10.296265,34.325134,10.394958,34.240334C10.493652,34.155533,10.717041,33.962692,10.891357,33.811832L10.891357,33.811832z"/>
    <path transform="translate(199.167831,60.677273)" style="stroke:#000000;stroke-width:0.05mm;fill:none" d="M43.702637,31.363184C43.307678,30.976904,42.67218,30.596325,42.112915,30.411163C41.493835,30.206203,39.995605,30.149914,38.830872,30.287874C38.207642,30.361675,38.184265,30.357273,38.471924,30.220675C39.097046,29.923784,39.500549,29.849903,40.49707,29.849903C41.691223,29.849903,42.414246,30.029594,43.104309,30.497854C43.610657,30.841454,44.009094,31.299744,43.945557,31.465445C43.924744,31.519545,43.815491,31.473446,43.702698,31.363155L43.702637,31.363184z"/>
    <path transform="translate(199.167831,60.677273)" style="stroke:#000000;stroke-width:0.05mm;fill:none" d="M10.523132,30.967394C10.523132,30.707043,10.954102,29.824955,11.309753,29.357433C11.987976,28.465782,12.794373,27.828053,13.987976,27.239304C15.092224,26.694633,15.825256,26.541964,17.548828,26.497684C19.330811,26.451883,19.403503,26.607513,17.651428,26.717175C17.030945,26.755974,16.384766,26.828554,16.215515,26.878365C16.046265,26.928164,15.653992,27.042824,15.34375,27.133114C14.628235,27.341364,14.208252,27.535133,13.524536,27.972504C12.757446,28.463184,11.56189,29.711735,11.095581,30.509094C10.687317,31.207184,10.523193,31.338585,10.523193,30.967394L10.523132,30.967394z"/>
    <path transform="translate(199.167831,60.677273)" style="stroke:#000000;stroke-width:0.05mm;fill:none" d="M19.388916,29.704014C19.267761,29.615213,19.074036,29.581154,18.894043,29.617014C18.507996,29.693913,18.569092,29.441454,18.96875,29.308235C19.285461,29.202675,19.753906,29.435505,19.753906,29.698444C19.753906,29.888905,19.643433,29.890583,19.388916,29.704445L19.388916,29.704014z"/>
    <path transform="translate(199.167831,60.677273)" style="stroke:#000000;stroke-width:0.05mm;fill:none" d="M45.549255,55.285118C45.584351,55.228317,45.53894,55.153366,45.448303,55.118599C45.251953,55.043198,45.142517,55.126595,45.236877,55.279015C45.322083,55.416817,45.466125,55.419624,45.549255,55.285019L45.549255,55.285118z"/>
    <path transform="translate(199.167831,60.677273)" style="stroke:#000000;stroke-width:0.05mm;fill:none" d="M45.189819,54.509743L45.446228,54.377426L45.06488,54.216248C44.604309,54.021553,44.47229,54.014236,44.470459,54.183243C44.469666,54.253746,44.440552,54.417671,44.405884,54.547523C44.3479,54.763977,44.367188,54.777718,44.638062,54.712814C44.800537,54.67392,45.048828,54.582497,45.18988,54.50972L45.189819,54.509743z"/>
    <path transform="translate(199.167831,60.677273)" style="stroke:#000000;stroke-width:0.05mm;fill:none" d="M46.128296,54.414047C46.137268,54.273018,46.148315,54.103783,46.15387,54.037979C46.159851,53.972176,46.116943,53.90258,46.059265,53.883347C45.99939,53.863449,45.954346,54.024887,45.954346,54.259415C45.954346,54.70369,46.102905,54.835808,46.128235,54.414047L46.128296,54.414047z"/>
    <path transform="translate(199.167831,60.677273)" style="stroke:#000000;stroke-width:0.05mm;fill:none" d="M11.03595,52.880424C11.03595,52.85482,10.885925,52.761276,10.702637,52.672455C10.519287,52.583652,10.207764,52.37619,10.010315,52.211483L9.651367,51.91201L10.061646,51.948914C10.794739,52.014812,11.392151,52.131889,11.523193,52.235382C11.697144,52.372772,11.679565,52.203583,11.494507,51.9589C11.411804,51.849571,11.245117,51.745003,11.124084,51.726532C10.743103,51.668434,9.906494,51.157642,9.576416,50.781681C9.045471,50.176949,8.369385,48.39603,8.369385,47.60215C8.369385,47.473042,8.258484,47.152912,8.122986,46.890755C7.987488,46.628593,7.819458,46.289623,7.749573,46.137482C7.381714,45.336151,7.010742,46.008423,6.953064,47.580883C6.888245,49.347122,7.22583,50.168755,8.562439,51.498623C9.444031,52.375793,10.307373,52.926926,10.799744,52.926926C10.929688,52.926926,11.036011,52.906021,11.036011,52.880424L11.03595,52.880424z"/>
    <path transform="translate(199.167831,60.677273)" style="stroke:#000000;stroke-width:0.05mm;fill:none" d="M38.769531,48.293877C38.812012,48.057213,38.794556,47.890923,38.722412,47.846397C38.500916,47.709503,38.393311,47.977684,38.468506,48.479187C38.548401,49.011745,38.6521,48.947865,38.76947,48.293877L38.769531,48.293877z"/>
    <path transform="translate(199.167831,60.677273)" style="stroke:#000000;stroke-width:0.05mm;fill:none" d="M47.516235,42.035835C47.483521,41.954033,47.459229,41.978333,47.454224,42.097836C47.450195,42.205956,47.473999,42.266525,47.508118,42.232445C47.542236,42.198345,47.545837,42.109905,47.516113,42.035866L47.516235,42.035835z"/>
    <path transform="translate(199.167831,60.677273)" style="stroke:#000000;stroke-width:0.05mm;fill:none" d="M58.215332,21.644854C58.215332,21.588455,58.166443,21.542294,58.10675,21.542294C58.047058,21.542294,58.026672,21.588394,58.061523,21.644854C58.096436,21.701254,58.145203,21.747414,58.170105,21.747414C58.195007,21.747414,58.215332,21.701315,58.215332,21.644854z"/>
    <path transform="translate(199.167831,60.677273)" style="stroke:#000000;stroke-width:0.05mm;fill:none" d="M39.599976,94.052597C38.217285,93.959595,35.688599,93.511665,35.241028,93.28038C35.008972,93.160477,35.002502,93.140907,35.172729,93.074402C35.276245,93.034004,35.599304,93.050003,35.890686,93.110001C36.985474,93.335457,38.010437,93.456192,39.702515,93.55899C41.558777,93.671783,45.394836,93.583893,45.394836,93.428551C45.394836,93.37825,45.660217,93.336548,45.984558,93.335754C46.875977,93.333755,47.034241,93.267052,47.045105,92.889297L47.054077,92.567924L47.156921,92.926743C47.355042,93.383377,47.676514,93.56427,47.137024,93.584656C46.827393,93.636154,46.548218,93.716949,46.516663,93.764175C46.345886,94.019875,41.881714,94.205986,39.59967,94.052559L39.599976,94.052597z"/>
    <path transform="translate(199.167831,60.677273)" style="stroke:#000000;stroke-width:0.05mm;fill:none" d="M45.77948,93.16671C45.849976,93.138313,45.965393,93.138313,46.035889,93.16671C46.106384,93.195107,46.048706,93.218407,45.907654,93.218407C45.766663,93.218407,45.708923,93.195107,45.77948,93.16671z"/>
    <path transform="translate(199.167831,60.677273)" style="stroke:#000000;stroke-width:0.05mm;fill:none" d="M35.206299,95.116745C34.651245,95.032242,34.274536,93.242966,34.328979,93.484314L34.574402,92.876572C34.847778,92.42263,34.924805,92.36203,35.244873,92.353035C35.718628,92.339035,36.406372,92.244942,37.582886,92.033348L38.54126,91.86097L38.724426,92.103783L38.907593,92.346581L39.128113,91.848C39.635742,90.700439,40.257996,90.280289,41.799622,90.044296C42.719543,89.903465,44.056458,90.025696,44.745422,90.313515C44.935547,90.393318,45.158691,90.432014,45.241272,90.400314C45.328247,90.366913,45.602783,90.519615,45.893982,90.763466C46.17041,90.994896,46.476257,91.184258,46.573792,91.184258C46.696777,91.184258,46.735535,91.243355,46.700745,91.376381C46.661621,91.525681,46.694763,91.556984,46.848694,91.516678C46.98938,91.479881,47.063477,91.528275,47.104065,91.683525C47.135559,91.803795,47.202087,91.902199,47.251831,91.902199C47.301636,91.902199,47.342407,91.971497,47.342407,92.056046C47.342407,92.140747,47.385315,92.209892,47.4198,92.276871C51.017578,96.100563,39.242554,95.872467,35.206177,95.116745L35.206299,95.116745z"/>
</svg>
